<svg width="12" height="12" viewBox="0 0 12 12" fill="none" xmlns="http://www.w3.org/2000/svg">
<path id="Vector" d="M0.851727 6.42086C2.18864 6.42086 3.44563 6.94424 4.38989 7.89328C4.85734 8.36105 5.22763 8.91668 5.47944 9.52816C5.73125 10.1396 5.8596 10.7949 5.8571 11.4562H7.91806C7.91806 7.54364 4.74735 4.3612 0.851293 4.3612V6.42086H0.851727ZM0.854333 2.7689C5.62082 2.7689 9.49777 6.66713 9.49777 11.4584H11.5574C11.5574 5.53132 6.75619 0.708374 0.854333 0.708374V2.7689ZM3.70363 10.0181C3.70368 10.2055 3.66682 10.3911 3.59515 10.5643C3.52348 10.7375 3.41839 10.8949 3.2859 11.0274C3.15341 11.16 2.9961 11.2652 2.82296 11.337C2.64982 11.4087 2.46424 11.4457 2.27681 11.4458C2.08938 11.4458 1.90377 11.409 1.73059 11.3373C1.55741 11.2656 1.40003 11.1605 1.26746 11.0281C1.13489 10.8956 1.02971 10.7383 0.95793 10.5651C0.886152 10.392 0.849178 10.2064 0.849121 10.019C0.849064 9.64043 0.999379 9.27738 1.267 9.00968C1.53462 8.74197 1.89763 8.59155 2.27616 8.59149C2.65469 8.59143 3.01774 8.74175 3.28544 9.00937C3.55314 9.27699 3.70357 9.63956 3.70363 10.0181Z" fill="#FDCB00"/>
</svg>
