<svg width="30" height="30" viewBox="0 0 30 30" fill="none" xmlns="http://www.w3.org/2000/svg">
<path d="M29.7646 14.9855C29.7646 6.98875 23.2686 0.5 15.2646 0.5C7.26059 0.5 0.764587 6.98875 0.764587 14.9855C0.764587 19.3899 2.76559 23.3592 5.89759 26.0236C5.92659 26.0526 5.95559 26.0526 5.95559 26.0816C6.21659 26.2846 6.47759 26.4876 6.76759 26.6906C6.91259 26.7776 7.02859 26.8918 7.17359 27.0078C9.56984 28.6325 12.3985 29.5006 15.2936 29.5C18.1887 29.5006 21.0173 28.6325 23.4136 27.0078C23.5586 26.9208 23.6746 26.8066 23.8196 26.7178C24.0806 26.5166 24.3706 26.3136 24.6316 26.1106C24.6606 26.0816 24.6896 26.0816 24.6896 26.0526C27.7636 23.3574 29.7646 19.3899 29.7646 14.9855ZM15.2646 27.6748C12.5386 27.6748 10.0446 26.8048 7.98559 25.3566C8.01459 25.1246 8.07259 24.8944 8.13059 24.6624C8.30339 24.0337 8.55683 23.4299 8.88459 22.8663C9.20359 22.3153 9.58059 21.8223 10.0446 21.3873C10.4796 20.9522 11.0016 20.5481 11.5236 20.2291C12.0746 19.9101 12.6546 19.6781 13.2926 19.5041C13.9356 19.3308 14.5987 19.2436 15.2646 19.2449C17.2414 19.2309 19.1456 19.9892 20.5716 21.3583C21.2386 22.0253 21.7606 22.8083 22.1376 23.7054C22.3406 24.2274 22.4856 24.7784 22.5726 25.3566C20.4323 26.8613 17.8808 27.6707 15.2646 27.6748ZM10.8276 14.2623C10.5721 13.6773 10.4436 13.0447 10.4506 12.4063C10.4506 11.7701 10.5666 11.1321 10.8276 10.5521C11.0886 9.97213 11.4366 9.45194 11.8716 9.01694C12.3066 8.58194 12.8286 8.23575 13.4086 7.97475C13.9886 7.71375 14.6266 7.59775 15.2646 7.59775C15.9316 7.59775 16.5406 7.71375 17.1206 7.97475C17.7006 8.23575 18.2226 8.58375 18.6576 9.01694C19.0926 9.45194 19.4406 9.97394 19.7016 10.5521C19.9626 11.1321 20.0786 11.7701 20.0786 12.4063C20.0786 13.0733 19.9626 13.6823 19.7016 14.2605C19.4497 14.8319 19.0959 15.3527 18.6576 15.7975C18.2127 16.2352 17.6919 16.5883 17.1206 16.8397C15.9222 17.3322 14.578 17.3322 13.3796 16.8397C12.8083 16.5883 12.2875 16.2352 11.8426 15.7975C11.4036 15.3592 11.0583 14.8381 10.8276 14.2623ZM24.2836 23.8794C24.2836 23.8214 24.2546 23.7924 24.2546 23.7344C23.9694 22.8271 23.549 21.968 23.0076 21.1861C22.4657 20.3983 21.7997 19.7036 21.0356 19.1289C20.452 18.6898 19.8194 18.32 19.1506 18.0269C19.4549 17.8261 19.7368 17.5934 19.9916 17.3327C20.4239 16.9058 20.8036 16.4288 21.1226 15.9117C21.7649 14.8565 22.0966 13.6415 22.0796 12.4063C22.0886 11.4919 21.9109 10.5853 21.5576 9.74194C21.2087 8.92929 20.7066 8.19145 20.0786 7.56875C19.4515 6.95256 18.7136 6.46057 17.9036 6.11875C17.0588 5.76603 16.151 5.58903 15.2356 5.59856C14.32 5.58961 13.4123 5.76722 12.5676 6.12056C11.7506 6.46165 11.0108 6.96407 10.3926 7.59775C9.77641 8.22413 9.28441 8.96151 8.94259 9.77094C8.58924 10.6143 8.41162 11.5209 8.42059 12.4353C8.42059 13.0733 8.50759 13.6823 8.68159 14.2605C8.85559 14.8695 9.08759 15.4205 9.40659 15.9407C9.69659 16.4627 10.1026 16.9267 10.5376 17.3617C10.7986 17.6227 11.0886 17.8529 11.4076 18.0559C10.7367 18.3569 10.1039 18.7365 9.52259 19.1869C8.76859 19.7669 8.10159 20.4611 7.55059 21.2151C7.00368 21.9938 6.58286 22.8538 6.30359 23.7634C6.27459 23.8214 6.27459 23.8794 6.27459 23.9084C3.98359 21.5903 2.56259 18.4619 2.56259 14.9855C2.56259 8.00375 8.27559 2.29619 15.2646 2.29619C22.2536 2.29619 27.9666 8.00375 27.9666 14.9855C27.9628 18.3204 26.6386 21.5182 24.2836 23.8794Z" fill="#F70A0A"/>
</svg>
