<svg width="14" height="14" viewBox="0 0 14 14" fill="none" xmlns="http://www.w3.org/2000/svg">
<path id="Vector" d="M12.4637 0.583374H1.90125C1.23093 0.583374 0.682495 1.13181 0.682495 1.80212V12.3646C0.682495 13.0349 1.23093 13.5834 1.90125 13.5834H12.4637C13.1341 13.5834 13.6825 13.0349 13.6825 12.3646V1.80212C13.6825 1.13181 13.1341 0.583374 12.4637 0.583374ZM9.62 2.61462C9.62 2.39119 9.80281 2.20837 10.0262 2.20837H11.6512C11.8747 2.20837 12.0575 2.39119 12.0575 2.61462V4.23962C12.0575 4.46306 11.8747 4.64587 11.6512 4.64587H10.0262C9.91857 4.64566 9.81536 4.60279 9.73922 4.52665C9.66308 4.45051 9.62021 4.3473 9.62 4.23962V2.61462ZM7.1825 4.64587C7.81806 4.66229 8.42209 4.92629 8.86581 5.38163C9.30954 5.83696 9.55787 6.44759 9.55787 7.08337C9.55787 7.71916 9.30954 8.32979 8.86581 8.78512C8.42209 9.24045 7.81806 9.50446 7.1825 9.52087C6.54693 9.50446 5.9429 9.24045 5.49918 8.78512C5.05545 8.32979 4.80712 7.71916 4.80712 7.08337C4.80712 6.44759 5.05545 5.83696 5.49918 5.38163C5.9429 4.92629 6.54693 4.66229 7.1825 4.64587ZM12.0575 11.5521C12.0575 11.7756 11.8747 11.9584 11.6512 11.9584H2.71375C2.60607 11.9582 2.50286 11.9153 2.42672 11.8391C2.35058 11.763 2.30771 11.6598 2.3075 11.5521V6.27087H3.20125C3.08059 6.8612 3.09279 7.47098 3.23696 8.05601C3.38112 8.64104 3.65364 9.18667 4.03476 9.65335C4.41588 10.12 4.89606 10.4961 5.44049 10.7542C5.98492 11.0124 6.57996 11.1461 7.1825 11.1459C7.78503 11.1461 8.38007 11.0124 8.9245 10.7542C9.46893 10.4961 9.94911 10.12 10.3302 9.65335C10.7113 9.18667 10.9839 8.64104 11.128 8.05601C11.2722 7.47098 11.2844 6.8612 11.1637 6.27087H12.0575V11.5521Z" fill="#FDCB00"/>
</svg>
