<svg width="16" height="15" viewBox="0 0 16 15" fill="none" xmlns="http://www.w3.org/2000/svg">
<path d="M2.16667 0C1.2475 0 0.5 0.7475 0.5 1.66667V13.3333C0.5 14.2525 1.2475 15 2.16667 15H7.68424H10.0117H13.8333C14.7525 15 15.5 14.2525 15.5 13.3333V1.66667C15.5 0.7475 14.7525 0 13.8333 0H2.16667ZM2.16667 1.66667H13.8333L13.835 13.3333H10.0117V10.0293H11.9827L12.2757 7.75879H10.0247V6.31185C10.0247 5.65518 10.2077 5.21159 11.1494 5.21159H12.3392V3.18522C11.76 3.12605 11.1785 3.09729 10.596 3.09896C8.8677 3.09896 7.68424 4.15383 7.68424 6.09049V7.76204H5.73112V10.0326H7.68424V13.3333H2.16667V1.66667Z" fill="white"/>
</svg>
