<svg width="26" height="26" viewBox="0 0 26 26" fill="none" xmlns="http://www.w3.org/2000/svg">
<rect x="0.849121" y="0.708374" width="24.7083" height="24.75" rx="12.3542" fill="#279761"/>
<path d="M7.85173 13.4209C9.18864 13.4209 10.4456 13.9442 11.3899 14.8933C11.8573 15.3611 12.2276 15.9167 12.4794 16.5282C12.7313 17.1396 12.8596 17.7949 12.8571 18.4562H14.9181C14.9181 14.5436 11.7474 11.3612 7.85129 11.3612V13.4209H7.85173ZM7.85433 9.7689C12.6208 9.7689 16.4978 13.6671 16.4978 18.4584H18.5574C18.5574 12.5313 13.7562 7.70837 7.85433 7.70837V9.7689ZM10.7036 17.0181C10.7037 17.2055 10.6668 17.3911 10.5951 17.5643C10.5235 17.7375 10.4184 17.8949 10.2859 18.0274C10.1534 18.16 9.9961 18.2652 9.82296 18.337C9.64982 18.4087 9.46424 18.4457 9.27681 18.4458C9.08938 18.4458 8.90377 18.409 8.73059 18.3373C8.55741 18.2656 8.40003 18.1605 8.26746 18.0281C8.13489 17.8956 8.02971 17.7383 7.95793 17.5651C7.88615 17.392 7.84918 17.2064 7.84912 17.019C7.84906 16.6404 7.99938 16.2774 8.267 16.0097C8.53462 15.742 8.89763 15.5915 9.27616 15.5915C9.65469 15.5914 10.0177 15.7417 10.2854 16.0094C10.5531 16.277 10.7036 16.6396 10.7036 17.0181Z" fill="#FDCB00"/>
</svg>
