<svg width="26" height="26" viewBox="0 0 26 26" fill="none" xmlns="http://www.w3.org/2000/svg">
<rect x="0.682495" y="0.583374" width="25" height="25" rx="12.5" fill="#279761"/>
<path d="M18.4637 6.58337H7.90125C7.23093 6.58337 6.6825 7.13181 6.6825 7.80212V18.3646C6.6825 19.0349 7.23093 19.5834 7.90125 19.5834H18.4637C19.1341 19.5834 19.6825 19.0349 19.6825 18.3646V7.80212C19.6825 7.13181 19.1341 6.58337 18.4637 6.58337ZM15.62 8.61462C15.62 8.39119 15.8028 8.20837 16.0262 8.20837H17.6512C17.8747 8.20837 18.0575 8.39119 18.0575 8.61462V10.2396C18.0575 10.4631 17.8747 10.6459 17.6512 10.6459H16.0262C15.9186 10.6457 15.8154 10.6028 15.7392 10.5266C15.6631 10.4505 15.6202 10.3473 15.62 10.2396V8.61462ZM13.1825 10.6459C13.8181 10.6623 14.4221 10.9263 14.8658 11.3816C15.3095 11.837 15.5579 12.4476 15.5579 13.0834C15.5579 13.7192 15.3095 14.3298 14.8658 14.7851C14.4221 15.2405 13.8181 15.5045 13.1825 15.5209C12.5469 15.5045 11.9429 15.2405 11.4992 14.7851C11.0555 14.3298 10.8071 13.7192 10.8071 13.0834C10.8071 12.4476 11.0555 11.837 11.4992 11.3816C11.9429 10.9263 12.5469 10.6623 13.1825 10.6459ZM18.0575 17.5521C18.0575 17.7756 17.8747 17.9584 17.6512 17.9584H8.71375C8.60607 17.9582 8.50286 17.9153 8.42672 17.8391C8.35058 17.763 8.30771 17.6598 8.3075 17.5521V12.2709H9.20125C9.08059 12.8612 9.09279 13.471 9.23696 14.056C9.38112 14.641 9.65364 15.1867 10.0348 15.6533C10.4159 16.12 10.8961 16.4961 11.4405 16.7542C11.9849 17.0124 12.58 17.1461 13.1825 17.1459C13.785 17.1461 14.3801 17.0124 14.9245 16.7542C15.4689 16.4961 15.9491 16.12 16.3302 15.6533C16.7113 15.1867 16.9839 14.641 17.128 14.056C17.2722 13.471 17.2844 12.8612 17.1637 12.2709H18.0575V17.5521Z" fill="#FDCB00"/>
</svg>
