<svg width="24" height="27" viewBox="0 0 24 27" fill="none" xmlns="http://www.w3.org/2000/svg">
<path d="M22.1799 11.9898L23.6937 12.9161C23.7871 12.9731 23.8644 13.0539 23.9181 13.1505C23.9718 13.2471 24 13.3562 24 13.4672C24 13.5783 23.9718 13.6874 23.9181 13.784C23.8644 13.8806 23.7871 13.9613 23.6937 14.0184L12 21.1741L0.30626 14.0184C0.212869 13.9613 0.135565 13.8806 0.0818896 13.784C0.028214 13.6874 0 13.5783 0 13.4672C0 13.3562 0.028214 13.2471 0.0818896 13.1505C0.135565 13.0539 0.212869 12.9731 0.30626 12.9161L1.82009 11.9898L12 18.2206L22.1799 11.9898ZM22.1799 18.0279L23.6937 18.9542C23.7871 19.0112 23.8644 19.092 23.9181 19.1886C23.9718 19.2852 24 19.3943 24 19.5053C24 19.6164 23.9718 19.7255 23.9181 19.8221C23.8644 19.9187 23.7871 19.9994 23.6937 20.0565L12.6486 26.8165C12.4527 26.9366 12.2285 27 12 27C11.7715 27 11.5473 26.9366 11.3514 26.8165L0.30626 20.0565C0.212869 19.9994 0.135565 19.9187 0.0818896 19.8221C0.028214 19.7255 0 19.6164 0 19.5053C0 19.3943 0.028214 19.2852 0.0818896 19.1886C0.135565 19.092 0.212869 19.0112 0.30626 18.9542L1.82009 18.0279L12 24.2587L22.1799 18.0279ZM12.6473 0.182183L23.6937 6.94226C23.7871 6.99929 23.8644 7.08004 23.9181 7.17664C23.9718 7.27323 24 7.38237 24 7.4934C24 7.60443 23.9718 7.71356 23.9181 7.81016C23.8644 7.90675 23.7871 7.9875 23.6937 8.04453L12 15.2003L0.30626 8.04582C0.212869 7.98879 0.135565 7.90803 0.0818896 7.81144C0.028214 7.71485 0 7.60571 0 7.49468C0 7.38365 0.028214 7.27451 0.0818896 7.17792C0.135565 7.08133 0.212869 7.00058 0.30626 6.94355L11.3514 0.183467C11.5473 0.0634207 11.7715 0 12 0C12.2285 0 12.4527 0.0634207 12.6486 0.183467L12.6473 0.182183Z" fill="white"/>
</svg>
