<svg width="27" height="26" viewBox="0 0 27 26" fill="none" xmlns="http://www.w3.org/2000/svg">
<rect x="0.300049" y="0.239624" width="26.3825" height="25.6875" rx="12.8438" fill="#279761"/>
<path d="M20.6826 8.61462C20.1532 8.85525 19.5826 9.01337 18.9913 9.089C19.5963 8.72462 20.0638 8.14712 20.2838 7.45275C19.7132 7.7965 19.0807 8.03712 18.4138 8.17462C17.8707 7.58337 17.1076 7.23962 16.2413 7.23962C14.6257 7.23962 13.3057 8.55962 13.3057 10.189C13.3057 10.4227 13.3332 10.6496 13.3813 10.8627C10.9338 10.739 8.75442 9.56337 7.3038 7.78275C7.04942 8.21587 6.90505 8.72462 6.90505 9.26087C6.90505 10.2852 7.42067 11.1927 8.21817 11.7084C7.73005 11.7084 7.2763 11.5709 6.87755 11.3646V11.3852C6.87755 12.8152 7.89505 14.0115 9.24255 14.2796C8.80992 14.398 8.35574 14.4145 7.91567 14.3277C8.1024 14.9138 8.46811 15.4267 8.96137 15.7941C9.45464 16.1616 10.0507 16.3653 10.6657 16.3765C9.62317 17.2018 8.33092 17.6479 7.0013 17.6415C6.76755 17.6415 6.5338 17.6277 6.30005 17.6002C7.6063 18.439 9.16005 18.9271 10.8238 18.9271C16.2413 18.9271 19.2182 14.4309 19.2182 10.5327C19.2182 10.4021 19.2182 10.2784 19.2113 10.1477C19.7888 9.73525 20.2838 9.21275 20.6826 8.61462Z" fill="#FDCB00"/>
</svg>
