<svg width="28" height="21" viewBox="0 0 28 21" fill="none" xmlns="http://www.w3.org/2000/svg">
<path d="M15 21V15H19L14 9L9 15H13V21H8V20.95C7.832 20.96 7.672 21 7.5 21C5.51088 21 3.60322 20.2098 2.1967 18.8033C0.790176 17.3968 0 15.4891 0 13.5C0 9.652 2.91 6.516 6.644 6.086C6.97138 4.37459 7.88489 2.83074 9.22741 1.72C10.5699 0.609259 12.2576 0.00105603 14 0C15.7427 0.000975327 17.4306 0.609106 18.7734 1.71982C20.1163 2.83053 21.0302 4.37442 21.358 6.086C25.092 6.516 27.998 9.652 27.998 13.5C27.998 15.4891 27.2078 17.3968 25.8013 18.8033C24.3948 20.2098 22.4871 21 20.498 21C20.33 21 20.168 20.96 19.998 20.95V21H15Z" fill="white"/>
</svg>
