<svg width="27" height="27" viewBox="0 0 27 27" fill="none" xmlns="http://www.w3.org/2000/svg">
<rect x="0.682495" width="26.1667" height="26.1667" rx="13.0833" fill="#279761"/>
<path d="M13.7658 6C17.678 6 20.8492 9.17121 20.8492 13.0833C20.8492 16.9955 17.678 20.1667 13.7658 20.1667C12.5141 20.1687 11.2843 19.8374 10.2029 19.2069L6.68534 20.1667L7.64301 16.6477C7.01195 15.566 6.68041 14.3357 6.6825 13.0833C6.6825 9.17121 9.85371 6 13.7658 6ZM11.3518 9.75417L11.2102 9.75983C11.1185 9.76542 11.0288 9.78951 10.9467 9.83067C10.8698 9.87418 10.7997 9.92858 10.7384 9.99217C10.6534 10.0722 10.6053 10.1416 10.5535 10.2089C10.2915 10.5496 10.1505 10.9678 10.1526 11.3975C10.154 11.7446 10.2447 12.0825 10.3864 12.3984C10.6761 13.0373 11.1528 13.7137 11.7818 14.3406C11.9334 14.4915 12.0821 14.6431 12.2422 14.784C13.0238 15.4722 13.9551 15.9684 14.9622 16.2333L15.3645 16.2949C15.4956 16.302 15.6266 16.2921 15.7584 16.2857C15.9647 16.2751 16.1661 16.2192 16.3484 16.1221C16.4412 16.0743 16.5317 16.0223 16.6197 15.9662C16.6197 15.9662 16.6502 15.9464 16.7083 15.9025C16.8039 15.8317 16.8627 15.7814 16.942 15.6985C17.0008 15.6376 17.0518 15.566 17.0908 15.4846C17.146 15.3691 17.2013 15.1488 17.2239 14.9654C17.2409 14.8251 17.236 14.7486 17.2338 14.7012C17.231 14.6254 17.168 14.5468 17.0993 14.5135L16.687 14.3286C16.687 14.3286 16.0708 14.0601 15.6939 13.8887C15.6545 13.8715 15.6122 13.8616 15.5693 13.8597C15.5208 13.8547 15.4718 13.8601 15.4256 13.8757C15.3795 13.8912 15.3371 13.9164 15.3015 13.9496C15.298 13.9482 15.2505 13.9886 14.7384 14.6091C14.709 14.6486 14.6685 14.6784 14.6221 14.6948C14.5756 14.7112 14.5254 14.7134 14.4777 14.7012C14.4316 14.6888 14.3864 14.6732 14.3424 14.6544C14.2546 14.6176 14.2241 14.6034 14.1639 14.5779C13.7574 14.4005 13.381 14.1608 13.0483 13.8675C12.959 13.7895 12.8762 13.7045 12.7912 13.6224C12.5125 13.3555 12.2696 13.0536 12.0687 12.7242L12.0269 12.6569C11.9969 12.6117 11.9726 12.5629 11.9546 12.5117C11.9277 12.4076 11.9978 12.324 11.9978 12.324C11.9978 12.324 12.17 12.1356 12.25 12.0336C12.3279 11.9344 12.3938 11.8381 12.4363 11.7694C12.5199 11.6348 12.5461 11.4967 12.5022 11.3897C12.3038 10.9052 12.0984 10.4228 11.8873 9.944C11.8455 9.84908 11.7216 9.78108 11.609 9.76762C11.5707 9.76337 11.5325 9.75912 11.4942 9.75629C11.3991 9.75157 11.3038 9.75251 11.2088 9.75912L11.3511 9.75346L11.3518 9.75417Z" fill="#FDCB00"/>
</svg>
